<?xml version="1.0" encoding="utf-8"?>
<!-- Generator: Adobe Illustrator 25.0.0, SVG Export Plug-In . SVG Version: 6.00 Build 0)  -->
<svg version="1.1" id="Moneda-elegir-ceca" xmlns="http://www.w3.org/2000/svg" xmlns:xlink="http://www.w3.org/1999/xlink" x="0px" y="0px"
	 viewBox="0 0 100 100" style="enable-background:new 0 0 100 100;" xml:space="preserve">
<style type="text/css">
	.st0{fill:#FFED00;}
	.st1{fill:#1D1D1B;}
	.st2{fill:#D4CB00;}
	.st3{fill:#EEFF5A;}
	.st4{fill:#D4E22A;}
</style>
<g>
	<g>
		<g>
			<ellipse transform="matrix(0.5257 -0.8507 0.8507 0.5257 -18.8192 66.246)" class="st0" cx="50" cy="50" rx="49.8" ry="49.8"/>
		</g>
		<g>
			<path class="st1" d="M50,0.4c13.3,0,25.7,5.2,35.1,14.5c9.4,9.4,14.5,21.8,14.5,35.1s-5.2,25.7-14.5,35.1S63.3,99.6,50,99.6
				s-25.7-5.2-35.1-14.5C5.5,75.7,0.4,63.3,0.4,50s5.2-25.7,14.5-35.1C24.3,5.5,36.7,0.4,50,0.4 M50,0C22.4,0,0,22.4,0,50
				s22.4,50,50,50s50-22.4,50-50S77.6,0,50,0L50,0z"/>
		</g>
	</g>
	<g>
		<g>
			<ellipse transform="matrix(0.2298 -0.9732 0.9732 0.2298 -10.1502 87.1747)" class="st2" cx="50" cy="50" rx="39.4" ry="39.4"/>
		</g>
		<g>
			<path class="st1" d="M50,10.9c21.5,0,39.1,17.5,39.1,39.1S71.5,89.1,50,89.1S10.9,71.5,10.9,50S28.5,10.9,50,10.9 M50,10.2
				C28,10.2,10.2,28,10.2,50S28,89.8,50,89.8S89.8,72,89.8,50S72,10.2,50,10.2L50,10.2z"/>
		</g>
	</g>
	<g>
		<g>
			<polygon class="st3" points="49.4,14.9 51.3,39.7 67.4,20.7 54.3,41.9 78.5,36 55.5,45.5 78.5,55 54.3,49.1 67.4,70.3 51.3,51.3 
				49.4,76.1 47.5,51.3 31.4,70.3 44.4,49.1 20.2,55 43.2,45.5 20.2,36 44.4,41.9 31.4,20.7 47.5,39.7 			"/>
		</g>
		<g>
			<g>
				<polygon points="49.2,19.7 48.8,19.7 49.2,14.9 49.6,14.9 49.9,19.7 49.5,19.7 49.4,17.4 				"/>
			</g>
			<g>
				
					<rect x="50.1" y="21.5" transform="matrix(0.9971 -7.608792e-02 7.608792e-02 0.9971 -1.9296 3.9078)" width="0.4" height="11.5"/>
			</g>
			<g>
				<polygon points="51.1,40.2 50.7,34.9 51.1,34.8 51.4,39.2 54.3,35.9 54.6,36.1 				"/>
			</g>
			<g>
				<rect x="53.6" y="30" transform="matrix(0.6476 -0.7619 0.7619 0.6476 -2.1098 55.8431)" width="11.5" height="0.4"/>
			</g>
			<g>
				<polygon points="65,25 64.7,24.8 65.9,22.8 64.4,24.5 64.1,24.3 67.2,20.6 67.5,20.8 				"/>
			</g>
			<g>
				<rect x="55.1" y="31.1" transform="matrix(0.5244 -0.8515 0.8515 0.5244 2.2798 66.7128)" width="11.5" height="0.4"/>
			</g>
			<g>
				<polygon points="53.9,42.2 56.7,37.7 57,37.9 54.7,41.6 59,40.6 59.1,41 				"/>
			</g>
			<g>
				<rect x="60.7" y="38.8" transform="matrix(0.9717 -0.2363 0.2363 0.9717 -7.3294 16.801)" width="11.5" height="0.4"/>
			</g>
			<g>
				<polygon points="74.1,38.1 74,37.7 76.1,36.8 73.8,37.4 73.8,37 78.5,35.9 78.6,36.2 				"/>
			</g>
			<g>
				<rect x="61.3" y="40.6" transform="matrix(0.9247 -0.3808 0.3808 0.9247 -10.4792 28.588)" width="11.5" height="0.4"/>
			</g>
			<g>
				<polygon points="59.9,47.5 55,45.5 59.9,43.5 60.1,43.8 56,45.5 60.1,47.2 				"/>
			</g>
			<g>
				<rect x="66.8" y="44.5" transform="matrix(0.3805 -0.9248 0.9248 0.3805 -4.953 93.0938)" width="0.4" height="11.5"/>
			</g>
			<g>
				<polygon points="78.5,55.2 73.8,54 73.8,53.6 76.1,54.2 74,53.3 74.1,53 78.6,54.8 				"/>
			</g>
			<g>
				<rect x="66.2" y="46.3" transform="matrix(0.2357 -0.9718 0.9718 0.2357 0.1848 104.3244)" width="0.4" height="11.5"/>
			</g>
			<g>
				<polygon points="56.7,53.3 53.9,48.8 59.1,50.1 59,50.4 54.7,49.4 57,53.1 				"/>
			</g>
			<g>
				<rect x="60.7" y="54" transform="matrix(0.8514 -0.5245 0.5245 0.8514 -22.2731 40.7938)" width="0.4" height="11.5"/>
			</g>
			<g>
				<polygon points="67.2,70.4 64.1,66.7 64.4,66.5 65.9,68.2 64.7,66.3 65,66.1 67.5,70.2 				"/>
			</g>
			<g>
				<rect x="59.1" y="55.1" transform="matrix(0.7619 -0.6477 0.6477 0.7619 -25.2656 52.8998)" width="0.4" height="11.5"/>
			</g>
			<g>
				<polygon points="51.1,56.2 50.7,56.2 51.1,50.9 54.6,54.9 54.3,55.2 51.4,51.8 				"/>
			</g>
			<g>
				
					<rect x="44.6" y="63.5" transform="matrix(7.609963e-02 -0.9971 0.9971 7.609963e-02 -17.0681 109.0659)" width="11.5" height="0.4"/>
			</g>
			<g>
				<polygon points="49.2,76.2 48.8,71.3 49.2,71.3 49.4,73.6 49.5,71.3 49.9,71.3 49.6,76.2 				"/>
			</g>
			<g>
				
					<rect x="48.2" y="58" transform="matrix(0.9971 -7.610305e-02 7.610305e-02 0.9971 -4.7106 3.8702)" width="0.4" height="11.5"/>
			</g>
			<g>
				<polygon points="47.7,56.2 47.3,51.8 44.5,55.2 44.2,54.9 47.6,50.9 48,56.2 				"/>
			</g>
			<g>
				<rect x="33.7" y="60.6" transform="matrix(0.6482 -0.7615 0.7615 0.6482 -32.4418 51.4125)" width="11.5" height="0.4"/>
			</g>
			<g>
				<polygon points="31.5,70.4 31.2,70.2 33.7,66.1 34.1,66.3 32.9,68.2 34.4,66.5 34.7,66.7 				"/>
			</g>
			<g>
				<rect x="32.1" y="59.5" transform="matrix(0.5251 -0.8511 0.8511 0.5251 -32.817 60.6012)" width="11.5" height="0.4"/>
			</g>
			<g>
				<polygon points="42,53.3 41.7,53.1 44,49.4 39.7,50.4 39.7,50.1 44.8,48.8 				"/>
			</g>
			<g>
				<rect x="26.6" y="51.9" transform="matrix(0.972 -0.2352 0.2352 0.972 -11.3333 9.0619)" width="11.5" height="0.4"/>
			</g>
			<g>
				<polygon points="20.3,55.2 20.2,54.8 24.6,53 24.8,53.3 22.7,54.2 24.9,53.6 25,54 				"/>
			</g>
			<g>
				<rect x="26" y="50" transform="matrix(0.9245 -0.3811 0.3811 0.9245 -16.7542 15.89)" width="11.5" height="0.4"/>
			</g>
			<g>
				<polygon points="38.8,47.5 38.7,47.2 42.7,45.5 38.7,43.8 38.8,43.5 43.8,45.5 				"/>
			</g>
			<g>
				<rect x="31.5" y="35" transform="matrix(0.3805 -0.9248 0.9248 0.3805 -18.0461 54.6136)" width="0.4" height="11.5"/>
			</g>
			<g>
				<polygon points="24.6,38.1 20.2,36.2 20.3,35.9 25,37 24.9,37.4 22.7,36.8 24.8,37.7 				"/>
			</g>
			<g>
				<rect x="32.1" y="33.2" transform="matrix(0.2357 -0.9718 0.9718 0.2357 -13.1722 61.2007)" width="0.4" height="11.5"/>
			</g>
			<g>
				<polygon points="44.8,42.2 39.7,41 39.7,40.6 44,41.6 41.7,37.9 42,37.7 				"/>
			</g>
			<g>
				<rect x="37.7" y="25.6" transform="matrix(0.8514 -0.5245 0.5245 0.8514 -10.7952 24.5276)" width="0.4" height="11.5"/>
			</g>
			<g>
				<polygon points="33.7,25 31.2,20.8 31.5,20.6 34.7,24.3 34.4,24.5 32.9,22.8 34.1,24.8 				"/>
			</g>
			<g>
				<rect x="39.2" y="24.5" transform="matrix(0.7619 -0.6476 0.6476 0.7619 -10.176 32.7213)" width="0.4" height="11.5"/>
			</g>
			<g>
				<polygon points="47.6,40.2 44.2,36.1 44.5,35.9 47.3,39.2 47.7,34.8 48,34.9 				"/>
			</g>
			<g>
				
					<rect x="42.7" y="27.1" transform="matrix(7.617373e-02 -0.9971 0.9971 7.617373e-02 17.5395 73.4845)" width="11.5" height="0.4"/>
			</g>
		</g>
	</g>
	<g>
		<g>
			<path class="st2" d="M49.4,89.4c-2.2,0-4.5-0.1-6.8-0.3c1.8-9.2,1.8-19.1,0-30.1h13.5c-2.2,11.9-2.2,21.8,0,30.1
				C53.9,89.3,51.6,89.4,49.4,89.4z"/>
		</g>
		<g>
			<path class="st1" d="M55.7,59.4c-2.1,11.6-2.1,21.2,0,29.4c-2.1,0.2-4.2,0.3-6.2,0.3c-2.1,0-4.2-0.1-6.3-0.3
				c1.7-9,1.7-18.7,0-29.4H55.7 M56.6,58.6H42.2c1.8,10.7,1.9,21.1,0,30.9c2.4,0.2,4.8,0.4,7.2,0.4c2.4,0,4.8-0.1,7.2-0.4
				C54.1,80.2,54.5,69.7,56.6,58.6L56.6,58.6z"/>
		</g>
	</g>
	<g>
		<g>
			<path class="st2" d="M49.4,65.1c-7.1,0-12.9-6.6-12.9-14.8c0-8.1,5.8-14.8,12.9-14.8c7.1,0,12.9,6.6,12.9,14.8
				C62.3,58.5,56.5,65.1,49.4,65.1z"/>
		</g>
		<g>
			<path class="st1" d="M49.4,36c6.9,0,12.5,6.5,12.5,14.4s-5.6,14.4-12.5,14.4s-12.5-6.5-12.5-14.4S42.5,36,49.4,36 M49.4,35.2
				c-7.3,0-13.3,6.8-13.3,15.2s5.9,15.2,13.3,15.2s13.3-6.8,13.3-15.2S56.7,35.2,49.4,35.2L49.4,35.2z"/>
		</g>
	</g>
	<g>
		<g>
			<path class="st4" d="M38,52.4c-0.5,0-0.8-0.2-1-0.6c-0.3-0.5-0.4-1.5-0.4-2.7c0-8.5,6-19.3,12.8-19.3c6.9,0,12.8,10.2,12.8,18.6
				c0,3.1-0.8,3.5-1.6,3.5c-0.9,0-2.1-0.5-3.5-1.1c-2.1-0.9-4.8-2.1-7.6-2.1c-3,0-5.7,1.3-7.9,2.4C40.1,51.8,38.8,52.4,38,52.4
				C38,52.4,38,52.4,38,52.4z"/>
		</g>
		<g>
			<path class="st1" d="M49.4,30.1c6.7,0,12.4,10,12.4,18.2c0,3.1-0.8,3.1-1.2,3.1c-0.8,0-2-0.5-3.4-1.1c-2.2-0.9-4.8-2.1-7.8-2.1
				c-3.1,0-5.9,1.4-8.1,2.5C40,51.4,38.7,52,38,52c-0.3,0-1,0-1-2.9C37,40.7,42.8,30.1,49.4,30.1 M49.4,29.4
				c-7.3,0-13.2,11.4-13.2,19.7c0,2.8,0.7,3.7,1.8,3.7c2.3,0,6.5-3.7,11.4-3.7c4.7,0,8.9,3.2,11.2,3.2c1.3,0,2-1,2-3.9
				C62.6,40,56.7,29.4,49.4,29.4L49.4,29.4z"/>
		</g>
	</g>
</g>
</svg>
