<?xml version="1.0" encoding="utf-8"?>
<!-- Generator: Adobe Illustrator 25.0.0, SVG Export Plug-In . SVG Version: 6.00 Build 0)  -->
<svg version="1.1" id="icono_moneda" xmlns="http://www.w3.org/2000/svg" xmlns:xlink="http://www.w3.org/1999/xlink" x="0px" y="0px"
	 viewBox="0 0 100 100" style="enable-background:new 0 0 100 100;" xml:space="preserve">
<style type="text/css">
	.st0{fill:#FFED00;}
	.st1{fill:#1D1D1B;}
	.st2{fill:#D4CB00;}
</style>
<g>
	<g>
		<circle class="st0" cx="50" cy="50" r="49.5"/>
		<path class="st1" d="M50,1c27,0,49,22,49,49S77,99,50,99S1,77,1,50S23,1,50,1 M50,0C22.4,0,0,22.4,0,50s22.4,50,50,50
			s50-22.4,50-50S77.6,0,50,0L50,0z"/>
	</g>
	<g>
		<circle class="st2" cx="50" cy="50" r="38.8"/>
		<path class="st1" d="M50,12.2c20.9,0,37.8,17,37.8,37.8S70.9,87.8,50,87.8S12.2,70.9,12.2,50S29.1,12.2,50,12.2 M50,10.2
			C28,10.2,10.2,28,10.2,50S28,89.8,50,89.8S89.8,72,89.8,50S72,10.2,50,10.2L50,10.2z"/>
	</g>
</g>
</svg>
