<?xml version="1.0" encoding="utf-8"?>
<!-- Generator: Adobe Illustrator 25.0.0, SVG Export Plug-In . SVG Version: 6.00 Build 0)  -->
<svg version="1.1" xmlns="http://www.w3.org/2000/svg" xmlns:xlink="http://www.w3.org/1999/xlink" x="0px" y="0px"
	 viewBox="0 0 74.9 100" style="enable-background:new 0 0 74.9 100;" xml:space="preserve">
<style type="text/css">
	.st0{fill:#689B5A;stroke:#000000;stroke-width:0.25;stroke-miterlimit:10;}
	.st1{fill:#81983A;stroke:#000000;stroke-width:0.25;stroke-miterlimit:10;}
	.st2{fill:#00983A;stroke:#1D1D1B;stroke-width:0.25;stroke-linecap:round;stroke-linejoin:round;stroke-miterlimit:10;}
</style>
<g id="pata4">
	<path class="st0" d="M55.3,59.2L71,67c3.1,1.2,4.4,4.3,3.6,6.6c-1.1,2.9-7.6,2.2-8.1,2.1c-0.5-0.1-2.3-0.3-4.5-1.4
		c-3.1-1.6-8.2-8.6-9-9.8C53.7,62.7,54.5,60.9,55.3,59.2z"/>
</g>
<g id="pata3">
	<path class="st0" d="M23.7,55.5L4,64.5c-3.1,1.2-4.4,4.3-3.6,6.6C1.5,74,8,73.2,8.5,73.2c0.5-0.1,2.3-0.3,4.5-1.4
		C16,70.1,25.2,62,26,60.7C25.2,59,24.4,57.2,23.7,55.5z"/>
</g>
<g id="pata2">
	<path class="st0" d="M52,37.9L71,32.2c3.1-1.2,4.4-4.3,3.6-6.6c-1.1-2.9-7.6-2.2-8.1-2.1c-0.5,0.1-2.3,0.3-4.5,1.4
		c-3.1,1.6-11.5,6.5-12.3,7.7C50.5,34.4,51.3,36.1,52,37.9z"/>
</g>
<g id="pata1">
	<path class="st0" d="M27.4,45.3L4,34.7c-3.1-1.2-4.4-4.3-3.6-6.6C1.5,25.2,8,25.9,8.5,26c0.5,0.1,2.3,0.3,4.5,1.4
		C16.1,29,28.9,38.8,29.7,40C28.9,41.8,28.1,43.5,27.4,45.3z"/>
</g>
<g id="cola">
	<path class="st0" d="M42.4,72.6c-0.7,6.8-1.5,13.5-2.2,20.3c0,3-0.2,6.9-1.2,7c-1,0.1-2.6-4.5-3.3-7.2c-1-4.1-1.8-10.7,0.8-19.7
		C38.5,72.8,40.4,72.7,42.4,72.6z"/>
</g>
<g id="cabeza">
	<path class="st0" d="M29.5,6.8c-0.6,1.2-3.1,6.8-0.2,10.3c2.1,2.6,5.9,2.5,9.2,2.4c3.3-0.1,7.3-0.2,9.4-3c2.6-3.7,0-8.9-0.4-9.7
		c-0.4-0.8-3.7-7-9.4-6.7C32.8,0.4,30.1,5.8,29.5,6.8z"/>
</g>
<g id="caparazon-dentro">
	<path class="st1" d="M39.2,89.6c-0.4,0-0.9,0-1.3,0c-0.6-0.1-1.2-0.1-1.8-0.2c-2.5-0.3-4.8-0.9-7.2-1.7c-0.9-0.3-1.5-0.9-1.8-1.8
		c-0.1-0.3-0.2-0.5-0.3-0.8c-0.1-0.2-0.2-0.3-0.4-0.3c-0.7,0-1.4,0-2.1-0.1c-1.3-0.2-2.4-1-3.3-1.9c-2.6-2.6-4.9-5.3-6.8-8.4
		c-0.6-0.9-0.9-1.9-0.7-3c0.1-0.3,0.1-0.6,0.2-1c0-0.2,0-0.3-0.3-0.4c-0.5-0.2-0.9-0.4-1.3-0.7c-0.8-0.7-1.2-1.6-1.5-2.6
		c-0.8-2.9-1.4-5.9-1.8-9c-0.1-0.8-0.2-1.6-0.3-2.4c0-0.2,0-0.3,0-0.5c0.2-0.4,0.4-0.9,0.7-1.3c0.5-0.8,0.6-0.8,0-1.6
		c-0.4-0.6-0.7-1.3-0.6-2.1c0.3-2.2,0.6-4.4,1-6.6c0.3-1.7,0.8-3.4,1.3-5.1c0.4-1.3,1.3-2.3,2.7-2.7c0,0,0,0,0.1-0.1
		c0-0.1,0-0.2,0-0.3c-0.3-1.5-0.2-2.8,0.7-4.1c2.3-3.5,4.9-6.6,8.2-9.3c0.8-0.7,1.6-1.1,2.6-1c0.2,0,0.4,0,0.6,0c1-0.1,1-0.1,1.3-1
		c0.2-0.7,0.7-1.2,1.4-1.5c0.3-0.1,0.5-0.2,0.8-0.3c2.7-1,5.6-1.6,8.5-1.7c3.8-0.1,7.4,0.4,10.9,2c0.8,0.4,1.4,0.9,1.6,1.8
		c0.2,0.9,0.1,0.7,1,0.8c0.3,0,0.5,0.1,0.8,0c1.1-0.1,1.9,0.3,2.7,1c0.1,0.1,0.3,0.3,0.5,0.4c3.4,2.8,6,6.1,8.3,9.8
		c0.3,0.5,0.4,1,0.4,1.6c-0.1,0.7-0.1,1.3-0.2,2c0,0,0,0.1,0,0.1c0.1,0,0.1,0.1,0.2,0.1c1,0.3,1.8,0.9,2.2,1.9
		c0.3,0.6,0.5,1.2,0.7,1.8c0.9,3.3,1.5,6.7,1.9,10.1c0.1,0.9,0.1,1.7-0.5,2.5c-0.7,1-0.7,1,0,2c0.4,0.6,0.6,1.2,0.5,1.8
		c-0.3,2.2-0.5,4.4-1,6.5c-0.4,2.1-1.1,4.1-1.7,6.1c-0.2,0.7-0.7,1.3-1.4,1.6C64.3,69.9,64.2,70,64,70c-0.3,0.1-0.4,0.3-0.3,0.5
		c0.1,1.9-0.4,3.6-1.5,5.1c-1.7,2.3-3.5,4.5-5.5,6.6c-1.6,1.7-3.6,2.6-6,2.6c-0.3,0-0.4,0.1-0.4,0.4c-0.3,1.1-0.8,2-2,2.4
		c-2.2,0.7-4.3,1.4-6.6,1.6C40.8,89.5,40,89.5,39.2,89.6z M38.1,59.1C38.1,59.1,38.1,59.1,38.1,59.1c1.7,0,3.4,0,5.2,0
		c0.9,0,1.7-0.4,2.2-1.2c0.4-0.6,0.8-1.1,1.2-1.7c0.7-1.1,1.4-2.1,2.1-3.2c0.6-1,0.5-2-0.2-3c-0.9-1.3-1.8-2.5-2.7-3.8
		c-0.8-1.1-1.8-1.9-3.3-1.9c-0.4,0-0.7,0-1.1,0c-2,0-4,0-6.1,0c-2.1,0-3.7,0.7-4.8,2.5c-0.6,1-1.4,1.9-2.1,2.9
		c-0.5,0.7-0.9,1.5-0.7,2.4c0.2,0.7,0.5,1.4,0.9,2c1,1.7,2.3,3.2,3.6,4.7c0.1,0.2,0.4,0.2,0.6,0.2C34.8,59.1,36.5,59.1,38.1,59.1z
		 M41.5,75.1C41.5,75.2,41.5,75.2,41.5,75.1c0.3,0.1,0.7,0.1,1,0.1c1.3-0.1,2.5-0.5,3.3-1.6c0.4-0.6,0.9-1.1,1.3-1.7
		c0.7-1,1.5-2,1.9-3.2c0.3-0.9,0.2-1.7-0.3-2.4c-0.5-0.6-1-1.3-1.4-1.9c-0.7-1-1.4-2-2.1-3c-0.4-0.5-0.9-0.8-1.6-0.8
		c-3.1-0.1-6.1-0.1-9.2-0.2c-1.1,0-2,0.4-2.7,1.2c-1.2,1.5-2.3,3.1-3.5,4.7c-0.8,1.1-0.8,2.2,0.1,3.3c1.1,1.5,2.1,3,3.2,4.5
		c0.4,0.6,1,1.1,1.8,1.1c0.8,0,1.7,0,2.5,0C37.8,75.1,39.6,75.1,41.5,75.1z M38.6,43.3C38.6,43.3,38.6,43.3,38.6,43.3
		c1.2,0,2.5,0,3.7,0c1.3,0,2.5-0.5,3.3-1.5c1-1.3,1.9-2.7,2.9-4.1c0.5-0.7,0.8-1.4,0.7-2.3c-0.1-0.7-0.5-1.2-0.9-1.7
		c-0.7-1-1.4-2-2.2-3.1c-0.3-0.4-0.6-0.9-1-1.2c-0.7-0.7-1.7-0.7-2.6-0.8c-1.4,0-2.7-0.1-4.1-0.1c-1.5,0-3,0-4.5,0.1
		c-0.7,0-1.4,0.2-1.9,0.8c-0.2,0.2-0.4,0.4-0.5,0.6c-1,1.4-2,2.7-3,4.1c-0.9,1.2-0.9,2.3,0,3.5c1,1.4,2,2.7,3,4.1
		c0.8,1.1,2,1.6,3.3,1.6C36,43.3,37.3,43.3,38.6,43.3z M22,51.3c0,0,1.3,0,2,0c1-0.1,1.9-0.4,2.5-1.2c1.2-1.7,2.4-3.3,3.6-5
		c0.6-0.8,0.6-1.6,0-2.5c-1.2-1.6-2.4-3.2-3.7-4.8c-0.5-0.6-1.1-1.2-2-1.2c-0.4,0-0.9-0.1-1.3-0.1c-1.7,0-3.5,0.1-5.2,0.1
		c-0.9,0-1.6,0.4-2.1,1.1c-0.7,0.8-1.1,1.8-1.4,2.8c-0.6,1.9-1,3.9-1.2,5.8c-0.1,1-0.2,2.1-0.2,3.2c0,1,0.5,1.6,1.5,1.8
		c0.4,0.1,0.8,0.1,1.2,0.1C17.8,51.3,19.9,51.3,22,51.3z M57.4,51.2C57.4,51.2,57.4,51.2,57.4,51.2c0.5,0,1,0,1.5,0c1,0,2,0.1,3,0
		c1.1,0,1.8-0.6,2-1.6c0.1-0.5,0.1-1,0.1-1.5c-0.2-1.7-0.4-3.4-0.7-5.1c-0.3-1.6-0.8-3.2-1.6-4.6c-0.7-1.2-1.6-1.9-3.1-1.9
		c-1.8,0-3.7,0-5.5,0c-0.9,0-1.7,0.3-2.3,1c-0.8,0.9-1.5,1.9-2.2,2.9c-0.4,0.5-0.8,1.1-1.2,1.6c-0.3,0.4-0.7,0.9-0.8,1.4
		c-0.2,0.7,0.1,1.3,0.5,1.9c1.1,1.5,2.2,3,3.3,4.5c0.7,1.1,1.7,1.5,3,1.5C54.7,51.2,56,51.2,57.4,51.2z M55.8,67.3
		C55.8,67.3,55.8,67.3,55.8,67.3c0.9,0,1.9,0.1,2.8,0c0.6,0,1.1-0.1,1.7-0.3c0.9-0.3,1.4-1,1.6-1.8c0.4-1.4,0.9-2.8,1.2-4.3
		c0.4-1.8,0.8-3.7,1-5.5c0.2-1.9-0.4-2.7-2.3-2.9c-0.9-0.1-1.9-0.1-2.8-0.1c-2.1,0-4.1,0.1-6.2,0.1c-1.1,0-2,0.5-2.6,1.4
		c-1,1.5-2,3-3.1,4.4c-0.7,1-0.8,1.9,0,2.9c0,0,0.1,0.1,0.1,0.1c1.2,1.6,2.3,3.2,3.5,4.8c0.4,0.6,1,0.9,1.7,0.9
		C53.5,67.2,54.7,67.3,55.8,67.3z M21.2,67.2c1,0,1.9,0,2.9,0c1,0,1.9-0.4,2.5-1.3c0.5-0.6,0.9-1.3,1.4-1.9c0.7-1.1,1.5-2.1,2.2-3.2
		c0.4-0.6,0.4-1.3,0-1.9c-0.2-0.4-0.4-0.7-0.7-1c-0.9-1.2-1.8-2.4-2.6-3.7c-0.7-1.1-1.7-1.6-2.9-1.6c-2,0-3.9-0.1-5.8-0.1
		c-1,0-2.1,0-3.1,0.2c-1.1,0.1-1.8,0.7-1.9,1.7c-0.1,0.6-0.2,1.3-0.1,1.9c0.2,1.5,0.5,3,0.9,4.5c0.4,1.6,0.8,3.1,1.3,4.6
		c0.3,1,1,1.7,2.1,1.8C18.5,67.2,21.2,67.3,21.2,67.2z M40.7,27.3C40.7,27.3,40.7,27.3,40.7,27.3c0.7,0,1.4,0,2,0
		c0.8,0,1.6-0.3,2.1-1c0.7-0.9,1.4-1.8,2.1-2.7c0.2-0.3,0.3-0.6,0.4-0.9c0.2-0.6,0.1-1.1-0.5-1.5c-0.6-0.3-1.2-0.6-1.9-0.9
		c-2.9-0.9-5.9-1.2-8.9-1c-1.8,0.1-3.6,0.5-5.3,1.3c-1.4,0.7-1.6,1.1-1,2.6c0.4,1.1,1.2,1.9,2,2.8c0.6,0.7,1.4,1,2.3,1.1
		c0.3,0,0.5,0,0.8,0C36.8,27.3,38.8,27.3,40.7,27.3z M36.8,76.5C36.8,76.5,36.8,76.5,36.8,76.5c-0.9-0.1-1.9-0.1-2.8-0.1
		c-0.7,0-1.4,0.2-1.9,0.8c-0.7,0.8-1.3,1.7-2,2.6c-0.4,0.5-0.6,1.1-0.6,1.8c0,0.3,0.1,0.5,0.4,0.7c0.9,0.4,1.8,0.9,2.7,1.1
		c3.2,0.9,6.5,1,9.8,0.6c1.2-0.1,2.4-0.4,3.4-1c1.5-0.8,1.9-2,0.9-3.4c-0.6-0.8-1.2-1.6-1.9-2.3c-0.6-0.7-1.4-1-2.4-1
		c-0.5,0-1.1,0-1.6,0C39.5,76.4,38.2,76.5,36.8,76.5z M21.8,68.5C21.8,68.5,21.8,68.5,21.8,68.5c-0.3,0-0.7,0-1,0c-0.3,0-0.7,0-1,0
		c-0.5,0.1-1.1,0.1-1.6,0.3c-0.7,0.2-1,0.6-0.8,1.3c0.1,0.3,0.1,0.6,0.3,0.9c0.8,1.2,1.7,2.5,2.6,3.7c1.2,1.6,2.5,3.1,4.1,4.3
		c0.9,0.7,1.9,1.2,3.2,1.3c0.2,0,0.4-0.1,0.5-0.2c0.7-1,1.4-2,2.1-3.1c0.5-0.8,0.5-1.6,0-2.4c-0.3-0.4-0.6-0.8-0.9-1.3
		c-0.7-1-1.4-2-2.1-3c-0.8-1.3-2-2-3.6-1.9C22.9,68.5,22.3,68.5,21.8,68.5z M55.5,35.2C55.5,35.2,55.5,35.2,55.5,35.2
		c0.7,0,1.4,0.1,2,0c0.5,0,0.9-0.1,1.4-0.2c0.6-0.2,0.9-0.6,0.7-1.2c-0.1-0.4-0.3-0.8-0.5-1.2c-0.5-0.8-1-1.7-1.6-2.5
		c-1.2-1.7-2.5-3.4-4.1-4.8c-0.7-0.6-1.5-1.2-2.3-1.7c-0.7-0.5-1.5-0.4-2.1,0.3c-0.8,0.8-1.5,1.7-2.2,2.6c-0.6,0.9-0.6,1.9,0.1,2.8
		c1.1,1.4,2.1,2.9,3.1,4.3c0.7,1,1.6,1.5,2.8,1.6C53.8,35.2,54.7,35.2,55.5,35.2z M22.8,35.2c0.6,0,1.1,0,1.7,0c0.8,0,1.4-0.3,1.9-1
		c1.2-1.7,2.5-3.5,3.8-5.2c0.6-0.8,0.6-1.5,0.1-2.3c-0.5-0.8-1.1-1.6-1.7-2.3c-0.2-0.3-0.4-0.5-0.7-0.7c-0.4-0.3-1-0.5-1.5-0.3
		c-0.6,0.2-1.2,0.5-1.7,0.9c-2.6,2.1-4.7,4.6-6.5,7.4c-0.4,0.6-0.7,1.2-1,1.8c-0.2,0.6,0,1,0.6,1.2c0.3,0.1,0.6,0.2,0.9,0.2
		C20.2,35.2,22.8,35.2,22.8,35.2z M55.8,68.6C55.8,68.6,55.8,68.6,55.8,68.6c-1,0-2,0-3,0c-0.8,0-1.5,0.3-2,0.9
		c-0.8,1-1.7,1.9-2.5,2.9c-0.6,0.8-1.1,1.8-1.7,2.6c-0.3,0.4-0.3,0.9-0.1,1.3c0.6,1.2,1.4,2.3,2.4,3.3c0.7,0.8,1.5,0.8,2.4,0.3
		c0.3-0.2,0.6-0.4,0.8-0.7c0.7-0.6,1.4-1.3,2.1-1.9c1.4-1.4,2.8-2.9,4-4.6c0.5-0.8,0.9-1.6,1.3-2.5c0.3-0.9-0.1-1.5-1-1.7
		c-0.1,0-0.3-0.1-0.4-0.1C57.3,68.6,56.6,68.6,55.8,68.6z"/>
</g>
<g id="caparazon-fuera">
	<g>
		<path class="st2" d="M33.1,59.1c-0.2,0-0.5-0.1-0.6-0.2c-1.3-1.5-2.6-3-3.6-4.7c-0.4-0.6-0.7-1.3-0.9-2c-0.2-0.9,0.2-1.7,0.7-2.4
			c0.7-1,1.4-1.9,2.1-2.9c1.1-1.8,2.7-2.5,4.8-2.5c2,0,4,0,6.1,0c0.4,0,0.7,0,1.1,0c1.5,0,2.5,0.8,3.3,1.9c0.9,1.3,1.8,2.5,2.7,3.8
			c0.7,1,0.8,2,0.2,3c-0.6,1.1-1.4,2.1-2.1,3.2c-0.4,0.6-0.8,1.1-1.2,1.7c-0.5,0.8-1.3,1.2-2.2,1.2C41.6,59.1,34.8,59.1,33.1,59.1z"
			/>
		<path class="st2" d="M35.9,75.1c-0.8,0-1.7,0-2.5,0c-0.8,0-1.4-0.5-1.8-1.1c-1.1-1.5-2.1-3-3.2-4.5c-0.8-1.1-0.9-2.2-0.1-3.3
			c1.1-1.6,2.3-3.1,3.5-4.7c0.7-0.9,1.6-1.3,2.7-1.2c3.1,0,6.1,0.1,9.2,0.2c0.7,0,1.2,0.3,1.6,0.8c0.7,1,1.4,2,2.1,3
			c0.5,0.6,1,1.3,1.4,1.9c0.5,0.8,0.6,1.6,0.3,2.4c-0.4,1.2-1.2,2.2-1.9,3.2c-0.4,0.6-0.9,1.1-1.3,1.7c-0.8,1.1-2,1.5-3.3,1.6
			C42.1,75.2,37.8,75.1,35.9,75.1z"/>
		<path class="st2" d="M38.6,43.3c-1.3,0-2.6,0-3.8,0c-1.4,0-2.5-0.5-3.3-1.6c-1-1.4-2-2.7-3-4.1c-0.9-1.2-0.8-2.3,0-3.5
			c1-1.4,2-2.7,3-4.1c0.2-0.2,0.3-0.4,0.5-0.6c0.5-0.6,1.2-0.8,1.9-0.8c1.5,0,3-0.1,4.5-0.1c1.4,0,2.7,0,4.1,0.1
			c0.9,0,1.9,0.1,2.6,0.8c0.4,0.4,0.7,0.8,1,1.2c0.7,1,1.4,2,2.2,3.1c0.4,0.5,0.8,1.1,0.9,1.7c0.1,0.9-0.2,1.6-0.7,2.3
			c-1,1.4-1.9,2.7-2.9,4.1c-0.8,1.1-1.9,1.5-3.3,1.5C41.1,43.3,39.8,43.4,38.6,43.3C38.6,43.3,38.6,43.3,38.6,43.3z"/>
		<path class="st2" d="M15.7,51.3c-0.4,0-0.8,0-1.2-0.1c-1-0.2-1.5-0.8-1.5-1.8c0-1.1,0.1-2.1,0.2-3.2c0.2-2,0.6-3.9,1.2-5.8
			c0.3-1,0.7-1.9,1.4-2.8c0.5-0.7,1.2-1,2.1-1.1c1.7,0,3.5-0.1,5.2-0.1c0.4,0,0.9,0,1.3,0.1c0.9,0,1.5,0.6,2,1.2
			c1.2,1.6,2.4,3.2,3.7,4.8c0.6,0.8,0.6,1.6,0,2.5c-1.2,1.7-2.4,3.3-3.6,5c-0.6,0.8-1.5,1.1-2.5,1.2C23.3,51.3,17.8,51.3,15.7,51.3z
			"/>
		<path class="st2" d="M57.4,51.2c-1.4,0-2.8,0-4.1,0c-1.3,0-2.3-0.4-3-1.5c-1-1.5-2.2-3-3.3-4.5c-0.4-0.6-0.7-1.2-0.5-1.9
			c0.2-0.5,0.5-1,0.8-1.4c0.4-0.6,0.8-1.1,1.2-1.6c0.7-1,1.4-1.9,2.2-2.9c0.6-0.7,1.4-1,2.3-1c1.8,0,3.7,0,5.5,0
			c1.5,0,2.4,0.6,3.1,1.9c0.8,1.5,1.3,3,1.6,4.6c0.3,1.7,0.5,3.4,0.7,5.1c0.1,0.5,0,1-0.1,1.5c-0.2,1-0.9,1.6-2,1.6c-1,0-2,0-3,0
			C58.4,51.2,57.9,51.2,57.4,51.2C57.4,51.2,57.4,51.2,57.4,51.2z"/>
		<path class="st2" d="M55.8,67.3c-1.2,0-2.3-0.1-3.5-0.1c-0.7,0-1.3-0.3-1.7-0.9c-1.2-1.6-2.3-3.2-3.5-4.8c0,0-0.1-0.1-0.1-0.1
			c-0.7-1-0.7-1.9,0-2.9c1.1-1.4,2.1-2.9,3.1-4.4c0.6-1,1.5-1.4,2.6-1.4c2.1,0,4.1-0.1,6.2-0.1c0.9,0,1.9,0,2.8,0.1
			c1.9,0.2,2.5,1,2.3,2.9c-0.2,1.9-0.6,3.7-1,5.5c-0.3,1.4-0.7,2.9-1.2,4.3c-0.3,0.8-0.7,1.6-1.6,1.8c-0.5,0.2-1.1,0.2-1.7,0.3
			C57.7,67.3,56.8,67.3,55.8,67.3C55.8,67.3,55.8,67.3,55.8,67.3z"/>
		<path class="st2" d="M17.2,67.1c-1.1-0.1-1.8-0.8-2.1-1.8c-0.5-1.5-0.9-3.1-1.3-4.6c-0.3-1.5-0.6-3-0.9-4.5
			c-0.1-0.6,0-1.3,0.1-1.9c0.2-1,0.9-1.6,1.9-1.7c1-0.1,2.1-0.2,3.1-0.2c1.9,0,3.9,0.1,5.8,0.1c1.3,0,2.2,0.5,2.9,1.6
			c0.8,1.3,1.7,2.5,2.6,3.7c0.2,0.3,0.5,0.7,0.7,1c0.4,0.6,0.4,1.3,0,1.9c-0.7,1.1-1.5,2.1-2.2,3.2c-0.5,0.7-0.9,1.3-1.4,1.9
			c-0.6,0.8-1.5,1.2-2.5,1.3c-1,0-1.9,0-2.9,0C21.2,67.3,18.5,67.2,17.2,67.1z"/>
		<path class="st2" d="M34.9,27.3c-0.3,0-0.5,0-0.8,0c-0.9-0.1-1.7-0.4-2.3-1.1c-0.7-0.9-1.5-1.7-2-2.8c-0.6-1.4-0.4-1.9,1-2.6
			c1.7-0.8,3.5-1.2,5.3-1.3c3-0.2,6,0,8.9,1c0.7,0.2,1.3,0.5,1.9,0.9c0.6,0.3,0.7,0.8,0.5,1.5c-0.1,0.3-0.2,0.6-0.4,0.9
			c-0.7,0.9-1.4,1.8-2.1,2.7c-0.5,0.7-1.3,0.9-2.1,1C42.1,27.4,36.8,27.3,34.9,27.3z"/>
		<path class="st2" d="M40.9,76.4c0.5,0,1.1,0,1.6,0c0.9,0,1.7,0.4,2.4,1c0.7,0.7,1.3,1.5,1.9,2.3c1,1.4,0.6,2.6-0.9,3.4
			c-1.1,0.6-2.2,0.8-3.4,1c-3.3,0.4-6.6,0.3-9.8-0.6c-0.9-0.3-1.8-0.7-2.7-1.1c-0.3-0.1-0.4-0.3-0.4-0.7c0-0.7,0.2-1.3,0.6-1.8
			c0.7-0.9,1.3-1.8,2-2.6c0.5-0.6,1.2-0.8,1.9-0.8C35,76.4,39.5,76.4,40.9,76.4z"/>
		<path class="st2" d="M23.5,68.5c1.6-0.1,2.8,0.6,3.6,1.9c0.7,1,1.4,2,2.1,3c0.3,0.4,0.7,0.8,0.9,1.3c0.5,0.8,0.5,1.6,0,2.4
			c-0.7,1-1.4,2-2.1,3.1c-0.1,0.1-0.3,0.2-0.5,0.2c-1.2,0-2.2-0.6-3.2-1.3c-1.6-1.2-2.9-2.7-4.1-4.3c-0.9-1.2-1.7-2.5-2.6-3.7
			c-0.2-0.2-0.3-0.6-0.3-0.9c-0.1-0.7,0.1-1.1,0.8-1.3c0.5-0.1,1-0.2,1.6-0.3c0.3,0,0.7,0,1,0c0.3,0,0.7,0,1,0
			C21.8,68.5,22.9,68.5,23.5,68.5z"/>
		<path class="st2" d="M53,35.2c-1.2,0-2.1-0.6-2.8-1.6c-1-1.4-2.1-2.9-3.1-4.3c-0.7-0.9-0.7-1.9-0.1-2.8c0.7-0.9,1.4-1.8,2.2-2.6
			c0.6-0.6,1.4-0.7,2.1-0.3c0.8,0.5,1.6,1,2.3,1.7c1.6,1.4,2.9,3.1,4.1,4.8c0.6,0.8,1.1,1.6,1.6,2.5c0.2,0.4,0.4,0.8,0.5,1.2
			c0.2,0.6-0.1,1.1-0.7,1.2c-0.4,0.1-0.9,0.2-1.4,0.2C56.9,35.3,53.8,35.2,53,35.2z"/>
		<path class="st2" d="M18.8,35.1c-0.3,0-0.6-0.1-0.9-0.2c-0.6-0.2-0.9-0.6-0.6-1.2c0.3-0.6,0.6-1.2,1-1.8c1.8-2.8,3.9-5.3,6.5-7.4
			c0.5-0.4,1.1-0.7,1.7-0.9c0.5-0.2,1-0.1,1.5,0.3c0.3,0.2,0.5,0.4,0.7,0.7c0.6,0.8,1.1,1.5,1.7,2.3c0.5,0.8,0.5,1.5-0.1,2.3
			c-1.3,1.7-2.5,3.4-3.8,5.2c-0.5,0.6-1.1,0.9-1.9,1C23.9,35.2,20.2,35.2,18.8,35.1z"/>
		<path class="st2" d="M55.8,68.6c0.7,0,1.5,0,2.2,0c0.1,0,0.3,0,0.4,0.1c0.9,0.2,1.4,0.8,1,1.7c-0.3,0.9-0.8,1.7-1.3,2.5
			c-1.1,1.7-2.5,3.2-4,4.6c-0.7,0.7-1.4,1.3-2.1,1.9c-0.3,0.2-0.5,0.5-0.8,0.7c-0.9,0.6-1.7,0.5-2.4-0.3c-1-1-1.7-2.1-2.4-3.3
			c-0.2-0.5-0.2-0.9,0.1-1.3c0.5-0.9,1.1-1.8,1.7-2.6c0.8-1,1.6-2,2.5-2.9c0.5-0.6,1.2-0.9,2-0.9C53.8,68.6,54.8,68.6,55.8,68.6
			C55.8,68.6,55.8,68.6,55.8,68.6z"/>
	</g>
</g>
</svg>
